<svg height="511pt" viewBox="0 -5 511.99974 511" width="511pt" xmlns="http://www.w3.org/2000/svg"><g fill-rule="evenodd"><path d="m352.480469 161.257812c-2.09375 20.953126-22.253907 53.589844-44.1875 75.523438-50.496094 53.789062 11.460937 80.257812 11.460937 80.257812 69.222656-42.988281 146.976563-38.570312 182.246094-3.296874 0-120.84375-59.316406-152.484376-149.519531-152.484376zm0 0" fill="#ffc059"/><path d="m254.859375 196.890625c21.601563 5.789063 43.8125-7.03125 49.601563-28.636719l-78.242188-20.964844c-5.789062 21.605469 7.035156 43.8125 28.640625 49.601563zm0 0" fill="#858fa6"/><path d="m319.753906 317.039062s-61.957031-26.46875-11.460937-80.257812c21.933593-21.933594 42.09375-54.570312 44.1875-75.523438 0-83.261718-67.496094-150.757812-150.757813-150.757812h-150.757812l26.46875 51.375-67.433594 26.59375 34.316406 36.300781-21.289062 365.945313 44.671875-32.027344 44.675781 32.023438 44.675781-32.023438 44.671875 32.023438 44.675782-32.023438 44.675781 32.023438 44.671875-32.023438 44.675781 32.023438-16.503906-194.59375v-.007813c-14.785157 4.996094-29.660157 11.921875-44.164063 20.929687zm-15.292968-148.785156c-5.789063 21.605469-28 34.425782-49.601563 28.636719-21.609375-5.789063-34.429687-27.996094-28.640625-49.601563zm0 0" fill="#ffecd1"/></g><path d="m467.679688 184.683594c-24.25-21.378906-57.941407-32.050782-105.511719-33.300782-5.117188-84.058593-75.117188-150.882812-160.445313-150.882812h-41.160156c-5.523438 0-10 4.476562-10 10s4.476562 10 10 10h41.160156c77.433594 0 140.457032 62.851562 140.753906 140.210938-2.011718 17.601562-20.023437 47.769531-41.253906 69-.074218.074218-.148437.148437-.222656.226562-18.050781 19.230469-25.3125 37.992188-21.585938 55.765625 5.683594 27.121094 35.160157 40 36.410157 40.535156 1.261719.535157 2.597656.800781 3.929687.800781 1.839844 0 3.667969-.503906 5.273438-1.503906 9.964844-6.1875 20.027344-11.308594 30.039062-15.460937l5.488282 64.703125c.4375 5.214844 4.808593 9.15625 9.949218 9.15625.285156 0 .570313-.015625.855469-.039063 5.503906-.464843 9.585937-5.304687 9.121094-10.808593l-5.929688-69.90625c50.554688-14.867188 97.277344-5.46875 120.378907 17.632812 2.859374 2.855469 7.160156 3.710938 10.898437 2.167969 3.734375-1.550781 6.171875-5.195313 6.171875-9.242188 0-60.546875-14.496094-102.761719-44.320312-129.054687zm-44.027344 91.359375c-36.554688-.195313-72.886719 11.136719-104.269532 29.542969-6.40625-3.730469-17.917968-11.957032-20.410156-24.066407-2.257812-10.960937 3.296875-23.671875 16.507813-37.78125 18.960937-19 39.128906-48.4375 45.285156-72.382812 43.085937 1.007812 72.992187 10.082031 93.6875 28.332031 21.917969 19.320312 34.0625 49.953125 36.898437 93.289062-18.300781-10.910156-41.609374-16.820312-67.699218-16.933593zm0 0"/><path d="m387.242188 452.800781c-.464844-5.503906-5.320313-9.589843-10.808594-9.121093-5.503906.46875-9.585938 5.308593-9.121094 10.808593l1.3125 15.464844-27.050781-19.394531c-3.484375-2.496094-8.171875-2.496094-11.652344 0l-38.847656 27.851562-38.851563-27.851562c-3.480468-2.496094-8.167968-2.496094-11.652344 0l-38.847656 27.851562-38.847656-27.851562c-3.480469-2.496094-8.167969-2.496094-11.652344 0l-38.847656 27.851562-38.847656-27.851562c-3.484375-2.496094-8.171875-2.496094-11.652344 0l-27.648438 19.820312 20.074219-345.027344c.160157-2.753906-.824219-5.449218-2.71875-7.453124l-24.15625-25.550782 53.546875-21.117187c.082032-.03125.160156-.0625.242188-.097657l22.363281-8.820312c5.136719-2.023438 7.660156-7.832031 5.632813-12.96875-2.027344-5.140625-7.832032-7.660156-12.972657-5.636719l-14.058593 5.542969-14.8125-28.75h13.195312c5.519531 0 10-4.476562 10-10s-4.480469-10-10-10h-29.597656c-3.488282 0-6.722656 1.816406-8.539063 4.792969-1.8125 2.980469-1.945312 6.6875-.351562 9.785156l21.40625 41.550781-57.148438 22.539063c-3.089843 1.21875-5.371093 3.890625-6.09375 7.132812-.71875 3.238281.214844 6.628907 2.496094 9.039063l31.347656 33.160156-21.039062 361.632812c-.222657 3.847657 1.78125 7.480469 5.15625 9.339844 3.378906 1.859375 7.523437 1.613282 10.652343-.632812l38.847657-27.847656 38.847656 27.847656c3.484375 2.5 8.171875 2.5 11.652344 0l38.847656-27.847656 38.851563 27.847656c3.480468 2.5 8.167968 2.5 11.652343 0l38.847657-27.847656 38.847656 27.847656c3.480468 2.5 8.167968 2.5 11.652344 0l38.847656-27.847656 38.847656 27.847656c1.734375 1.246094 3.777344 1.875 5.828125 1.875 1.699219 0 3.402344-.433594 4.9375-1.308594 3.394531-1.925781 5.355469-5.648438 5.023437-9.539062zm0 0"/><path d="m384.195312 196.039062c-5.261718-1.679687-10.886718 1.234376-12.5625 6.496094l-3.5 11c-1.671874 5.261719 1.234376 10.886719 6.5 12.5625 1.007813.320313 2.027344.472656 3.035157.472656 4.234375 0 8.171875-2.714843 9.523437-6.96875l3.5-11c1.675782-5.265624-1.234375-10.890624-6.496094-12.5625zm0 0"/><path d="m221.605469 183.019531c6.746093 11.683594 17.636719 20.039063 30.664062 23.53125 4.359375 1.167969 8.742188 1.726563 13.058594 1.726563 22.296875 0 42.753906-14.902344 48.792969-37.4375 1.429687-5.332032-1.738282-10.816406-7.074219-12.246094l-78.132813-20.9375c-.035156-.007812-.070312-.019531-.105468-.027344-.035156-.011718-.070313-.019531-.105469-.027344l-15.015625-4.023437c-5.335938-1.429687-10.816406 1.738281-12.246094 7.070313-1.429687 5.335937 1.738282 10.820312 7.070313 12.25l6.410156 1.714843c-.636719 9.847657 1.636719 19.667969 6.683594 28.40625zm68.996093-8.128906c-2.554687 3.773437-5.949218 6.949219-10.011718 9.292969-7.058594 4.074218-15.273438 5.15625-23.144532 3.046875-7.871093-2.105469-14.445312-7.152344-18.519531-14.210938-2.347656-4.0625-3.699219-8.507812-4.023437-13.050781zm0 0"/><path d="m120.566406 20.5c5.519532 0 10-4.476562 10-10s-4.480468-10-10-10h-.007812c-5.523438 0-9.996094 4.476562-9.996094 10s4.480469 10 10.003906 10zm0 0"/><path d="m373.882812 423.792969c.472657 0 .949219-.03125 1.429688-.101563 5.46875-.78125 9.265625-5.847656 8.484375-11.3125v-.007812c-.78125-5.46875-5.835937-9.277344-11.3125-8.480469-5.46875.777344-9.269531 5.847656-8.484375 11.316406.710938 4.988281 4.988281 8.585938 9.882812 8.585938zm0 0"/></svg>
